<?xml version="1.0" encoding="utf-8"?>
<!-- Generator: Adobe Illustrator 25.0.1, SVG Export Plug-In . SVG Version: 6.00 Build 0)  -->
<svg version="1.1" id="Layer_1" xmlns="http://www.w3.org/2000/svg" xmlns:xlink="http://www.w3.org/1999/xlink" x="0px" y="0px"
	 viewBox="0 0 720 134" style="enable-background:new 0 0 720 134;" xml:space="preserve">
<style type="text/css">
	.st0{fill:#FFFFFF;}
</style>
<g>
	<g>
		<g>
			<g>
				<path class="st0" d="M72.4,121c0,0.1,0.1,0,0.3,0H72.4z"/>
				<path class="st0" d="M149.3,22.4h-24.5c-2.4-2.9-5.6-5.2-8.9-6.7c-3.9-1.8-8.2-2.7-12.5-2.7c-2.2,0-4.3,0.3-6.5,0.9
					c-2.1,0.6-4.2,1.5-6.1,2.7c-2.6,1.6-4.7,3.6-6.5,5.9c-0.9,1.1-1.7,2.3-2.4,3.5c-1,1.7-1.8,3.4-2.5,5.2c-0.8,2.1-1.4,4.2-1.8,6.4
					c0,0.1,0,0.1,0,0.2c-0.4,2-0.6,4.1-0.7,6.2c-0.1,1.8,0,3.6,0.1,5.4c-0.9-0.1-1.7-0.2-2.6-0.2c-10.7,0-19.5,8.7-19.5,19.5
					c0,10.7,8.7,19.5,19.5,19.5c10.5,0,19-8.3,19.5-18.6c0.4-0.1,0.7-0.2,1.1-0.4c0.8-0.3,1.6-0.9,2.3-1.5c1.3-1.4,1.9-3,2.1-4.3
					c0.4-2.7,0-4.9-0.5-7c-1.1-4.1-3.4-8-6.3-11c-1.5-1.5-3-2.8-4.9-4c-0.9-0.5-1.7-1-2.6-1.4c0.1-0.3,0.1-0.5,0.2-0.8
					c0.6-2.8,1.5-5.5,2.8-7.9c0.2-0.4,0.4-0.8,0.6-1.1c1.7-2.7,3.8-5,6.3-6.5c0.6-0.4,1.2-0.7,1.8-0.9c2.1-0.9,4.3-1.4,6.7-1.4
					c2.5,0,5.1,0.5,7.5,1.4c0.5,0.2,1,0.4,1.4,0.6c2.8,1.3,5.2,3.2,6.9,5.7c0.5,0.7,1,1.5,1.4,2.4c1,1.9,1.7,4,2.1,6.2
					c0.6,3.2,0.8,6.6,0.7,10c-0.1,3.4-0.6,6.9-1.2,10.5l-0.4,2.7c-0.2,0.9-0.3,1.7-0.5,2.5c-0.4,1.7-0.8,3.4-1.3,5
					c-1,3.3-2.3,6.5-3.8,9.7c-0.8,1.6-1.6,3.1-2.5,4.8c-0.9,1.5-1.7,3.1-2.7,4.6c-6.1,9.8-14.4,18.4-24.2,25.3H19.7
					c-2.7,0-4.9-2.2-4.9-4.9V35.9c0-2.7,2.2-4.9,4.9-4.9h25.2v-8.6H19.7c-7.4,0-13.5,6.1-13.5,13.5v71.6c0,7.4,6,13.5,13.5,13.5
					h129.5c7.4,0,13.5-6,13.5-13.5V35.9C162.7,28.5,156.7,22.4,149.3,22.4z M80.4,61.5c1.1,2,2.5,3.9,4.4,5.4c0.9,0.7,2,1.4,3.2,1.9
					c-0.3,7.2-6.3,13.3-13.6,13.3c-7.5,0-13.6-6.1-13.6-13.6c0-7.5,6.1-13.6,13.6-13.6c1.1,0,2.6,0.1,3.6,0.3
					C78.6,57.3,79.4,59.5,80.4,61.5z M74.4,85.6c-9.4,0-17.1-7.7-17.1-17.1c0-9.4,7.7-17.1,17.1-17.1c1,0,2,0.1,2.9,0.3
					c0.1,0.6,0.2,1.2,0.3,1.9c0.1,0.3,0.1,0.6,0.2,0.8c0,0.1,0,0.1,0,0.2c-1-0.2-2.5-0.4-3.5-0.4c-7.9,0-14.4,6.4-14.4,14.4
					c0,7.9,6.4,14.4,14.4,14.4c7.6,0,13.9-6.3,14.3-13.8c0.1,0,0.2,0.1,0.2,0.1c0.2,0.1,0.5,0.1,0.8,0.2c0.6,0.1,1.1,0.2,1.8,0.2
					C90.9,78.5,83.5,85.6,74.4,85.6z M87.7,49.7c2.2,2.4,3.7,5.2,4.4,8.2c0.3,1.2,0.5,2.5,0.4,3.4c0,0.2,0,0.4-0.1,0.6
					c-0.1,0.2-0.1,0.4-0.2,0.5c0,0.1-0.1,0.1-0.1,0.1c0,0,0,0,0,0c0,0,0,0,0,0c0,0-0.1,0-0.1,0c-0.2,0-0.7-0.1-1.1-0.3
					c-0.2-0.1-0.4-0.2-0.6-0.3c-0.3-0.1-0.6-0.3-0.8-0.6c-1-0.8-1.8-1.9-2.4-3.2c-0.4-0.7-0.7-1.5-1-2.2c-0.4-1.2-0.8-2.4-1-3.7
					c-0.2-1.1-0.4-2.2-0.4-3.3c-0.1-0.7-0.1-1.4-0.1-2.1C85.6,47.6,86.7,48.6,87.7,49.7z M154.1,107.5c0,2.7-2.2,4.9-4.9,4.9H92.1
					c9.5-5.2,18-12.7,24.5-21.6c1.1-1.6,2.2-3.2,3.2-4.8c1-1.6,2-3.2,2.9-4.9c1.9-3.4,3.5-7,4.8-10.7c0.6-1.9,1.2-3.7,1.7-5.6
					c0.2-1,0.4-1.9,0.6-2.9l0.5-2.8c0.7-3.7,1.2-7.6,1.4-11.5c0.1-3.9,0-8-0.9-12c-0.3-1.5-0.7-3.1-1.3-4.6h19.7
					c2.7,0,4.9,2.2,4.9,4.9V107.5z"/>
				<path class="st0" d="M97.3,78.5c-2.5,7-8.2,13.1-15.4,15.9c-3.6,1.4-7.5,2-11.4,1.7c-1,0-1.9-0.2-2.9-0.4
					c-0.9-0.2-1.9-0.4-2.8-0.7c-1.9-0.6-3.7-1.4-5.4-2.4c-1.7-1-3.3-2.2-4.8-3.5c-1.5-1.3-2.8-2.8-4-4.3c-2.4-3.1-4.1-6.9-5-10.8
					c-0.9-3.9-0.8-8-0.2-11.9c0.3-2,0.8-3.9,1.5-5.8c0.2-0.5,0.4-1,0.6-1.5c0.2-0.5,0.4-0.9,0.7-1.4c0.5-0.9,1-1.8,1.5-2.6
					c2.2-3.4,5-6.4,8.4-8.7c3.4-2.3,7.4-3.8,11.4-4.4c2.7-0.4,5.4-0.5,8.1-0.1c-0.4,2-0.6,4.1-0.7,6.2c-2.1-0.4-4.3-0.4-6.5-0.1
					c-1.6,0.2-3.3,0.6-4.8,1.1c-1.5,0.5-3,1.2-4.4,2.1C58.4,48.6,56,51,54,53.8c-0.5,0.7-0.9,1.4-1.3,2.1c-0.2,0.4-0.4,0.7-0.6,1.1
					c-0.2,0.3-0.3,0.7-0.5,1.1c-0.6,1.6-1.1,3.2-1.4,4.9c-0.7,3.3-0.8,6.8-0.2,10.1c1,6.7,5.4,12.7,11.2,16.5c1.4,0.9,3,1.8,4.6,2.3
					c0.8,0.3,1.6,0.5,2.5,0.8c0.9,0.2,1.7,0.4,2.6,0.5c3.4,0.5,7,0.2,10.4-0.9c1.7-0.5,3.3-1.3,4.8-2.2c1.5-0.9,3-1.9,4.3-3.2
					c1.3-1.2,2.5-2.6,3.6-4c1-1.5,1.9-3.1,2.7-4.7c0.1-0.2,0.3-0.3,0.5-0.2C97.3,78.1,97.3,78.4,97.3,78.5z"/>
			</g>
		</g>
		<path class="st0" d="M147.2,16.8v2.4H133v-2.4c0-1.2,0.7-2.2,1.6-2.2h11.1C146.5,14.6,147.2,15.6,147.2,16.8z"/>
	</g>
	<g>
		<g>
			<g>
				<path class="st0" d="M273.9,7.7c2.1,7.7,3.4,20.2,2.9,33.2c0.9-3.1,1.9-6.1,3-9c1.7-4.6,3.6-8.7,5.9-11.8
					c1.1-1.5,2.4-2.8,3.8-3.7c1.4-0.9,3-1.5,4.7-1.4c2.2,0.1,4,1.1,5.4,2.7c1.4,1.6,2.6,3.6,3.5,6c1.9,4.9,3.2,11.2,4.1,17.4
					c0.8,5.7,1.2,11.3,1.4,15.9c1.5-5.8,3.6-13.4,6.4-20.7c2.4-6.3,5.1-12.3,8.4-16.8c1.6-2.2,3.4-4.1,5.3-5.4
					c1.7-1.1,3.6-1.8,5.7-1.9c0.3,0,0.6,0,0.9,0c2.7,0.2,4.7,1.7,5.8,3.8c1.1,2.1,1.5,4.8,1.6,7.9c0.2,6.3-1.1,14.4-2.2,22.5
					c-1.1,8.2-2,16.4-1.3,22.8c0.4,3.2,1.1,5.9,2.4,7.8c1.3,2,2.9,3.2,5.4,3.7c3.9,0.8,6.9-0.5,9.6-3.1c2.7-2.6,4.9-6.4,6.7-10
					c2.7-5.7,4.3-10.9,4.3-10.9c0.2-0.6,0.9-0.9,1.6-0.8c0.7,0.1,1.1,0.7,0.9,1.3c0,0-1.7,5.4-4.4,11.2c-3.4,7.1-8.9,16.3-19.6,15.8
					c-7.4-0.3-14.9-4.4-16.2-14.7c-0.7-6.7-0.1-15,1-23.2c1.1-8.2,2.3-16.3,2.2-22.2c0-4.7-1.3-11.8-7.3-3.4
					c-3.1,4.2-5.8,10.1-8.1,16.3c-3.9,10.5-6.6,21.7-8,27.2c-1.5,6-10.1,4-10.1-0.6c-0.2-7.2-0.5-14.2-1.4-21.1
					c-0.8-6-3.9-22.5-8.3-22c-2.7,0.2-5.9,8.6-7.4,12.1c-3.3,8.8-5.7,19.3-7.5,26.3C271,77.1,261.2,92.9,240.2,95
					c-19.4,1.8-34.1-8.8-33-25.3c0.8-10.9,9.8-21,21.8-22c11.5-1,11.3,11.2,1.5,11.2c-7.1,0-14.5,6.7-14.6,16.1
					c0.2,18.4,29.1,22.1,41.6,4.4c4.3-6.6,6.9-15.6,8.4-25.2c2.5-16.7,1.1-35.2-1.4-45.4c-0.8-3.2,1.7-5,4.3-5
					C271,3.8,273.3,5,273.9,7.7z"/>
				<path class="st0" d="M382.9,40.8c6.8-1.2,12.3,2,12.7,7.2c0.2,2.4-0.6,5.2-2,7.6c-3.7,6-11.8,7.6-17.1,5.7
					c-0.1,2.6,0.3,5.1,1.4,7.1c1.4,2.7,3.9,4.6,7.9,5.4c6.1,1.2,12-1.5,16.8-5.4c4.8-3.9,8.4-9,9.5-11.7c0.2-0.6,1-0.9,1.7-0.7
					c0.7,0.2,1.1,0.8,0.8,1.4c-1.4,3.2-5,8.4-10.2,12.5c-5.1,4.2-13,8.5-23.1,6.7c-8.5-1.6-15.7-7.7-14.2-18.2
					C368.4,49.4,374.7,42.4,382.9,40.8z M386.4,44.7c-1.4,0.5-2.8,1.5-4.1,2.8c-2.6,2.6-4.7,6.7-5.6,11.1c0,0.1,0,0.3-0.1,0.4
					c3.5,1.8,11.1,1,14.5-4.4c1.3-2.1,1.9-4.5,1.8-6.5c-0.2-1.9-1-3.2-2.6-3.7c-0.7-0.2-1.3-0.3-2-0.2
					C387.8,44.3,387.1,44.5,386.4,44.7z"/>
				<path class="st0" d="M471.9,42.4c1.8,0.3,3.1,1.1,3.9,2.2c0.8,1.1,1.1,2.5,1.1,3.9c0.1,3-0.8,6.6-1.6,10.2
					c-0.8,3.6-1.4,7.2-1,9.9c0.2,1.4,0.7,2.5,1.4,3.3c1.7,1.8,4.4,2.5,7.5,1.6c3.2-0.9,5.9-3.6,8.6-7.4c3.4-4.7,5.2-9.7,5.2-9.7
					c0.2-0.5,0.8-0.7,1.4-0.6c0.6,0.1,0.9,0.6,0.7,1.1c0,0-1.9,5.2-5.4,10.1c-4.1,5.7-9.4,11.1-17.8,9.8c-5.1-0.8-9.4-3.3-10.6-9.2
					c-1.3-7.1,2-15.8,1.8-19.9c0-1.9-0.9-1.8-1.9-0.7c-2,2.2-3.8,5.4-5.5,8.7c-1.6,3.3-3.1,6.6-4.5,9.2c-1.6,3-3.4,6.5-7.6,6.4
					c-2.5,0-4.9-1.2-6.3-3.9c-1.5-2.9-2.3-5.8-3.3-10.4c-1-4.4-1.7-7.4-3-7.2c-0.7,0.1-1.1,1.3-1.4,2.1c-1.8,4.8-3.2,10.8-4.6,15.2
					c-1.5,5-2.2,10.1-8.7,9.6c-5.8-0.4-8.4-5.5-8.8-11.6c-0.5-5.3,0.5-12.5,2.4-18.9c2-6,11-4.4,9.3,0.8c-1.7,6.2-2.4,12.9-2.2,18
					c0.1,2.7,0.5,4.9,1.1,6.4c0.3,0.8,0.7,1.3,1,1.7c0.2,0.2,0.8,0.7,1.2,0.3c0.2-0.2,0.5-0.7,0.8-1.4c0.6-1.3,1.1-3.3,1.8-5.5
					c1.3-4.3,2.7-10.3,4.6-15.3c1-2.6,2.4-6.3,5.3-8.4c0.8-0.5,1.8-0.8,2.8-0.8c1.4,0.1,2.5,0.7,3.4,1.5c0.8,0.8,1.5,1.9,2,3.2
					c1,2.5,1.6,5.7,2.1,8.8c0.5,3.2,0.9,6.3,1.5,8.6c0.3,1.2,0.7,2.1,1.1,2.7c0.4,0.6,0.6,0.7,0.8,0.7c0,0,0,0,0.2-0.1
					c0.2-0.1,0.4-0.3,0.7-0.6c0.6-0.6,1.2-1.6,1.9-2.9c1.3-2.5,2.8-5.8,4.5-9.2c1.7-3.3,3.5-6.7,5.7-9.1c1.1-1.2,2.3-2.2,3.7-2.9
					c1-0.5,2.2-0.8,3.4-0.8C471.1,42.3,471.5,42.4,471.9,42.4z"/>
				<path class="st0" d="M519.7,41.8c1.2,0,2.3,0.3,3.5,0.9c1.4,0.8,2.5,2,3.3,3.5c1.6,3,2.2,7.2,2,11.4c0,0.5-0.1,1-0.1,1.6
					c4.5,1.2,10.9,0.6,16-3.1c0.5-0.4,1.4-0.3,1.9,0.1c0.5,0.4,0.4,1.1-0.1,1.5c-5,3.5-11.9,5.1-18.1,4.4c-0.6,2.8-1.5,5.5-3,7.8
					c-3,4.6-7.1,7.7-14.2,7c-9.9-1.1-14.4-9.3-14.1-17.4c0.2-8.8,5.5-14.5,12.7-14.6h0c1.3,0,2.6,0.2,4,0.5c1.2-2.2,3.6-3.6,6.1-3.6
					C519.6,41.8,519.6,41.8,519.7,41.8z M512.4,47.7c-0.5,0-1,0.1-1.5,0.3c-0.9,0.4-1.8,1.2-2.6,2.3c-1.5,2.2-2.5,5.7-2.5,9.2
					c-0.1,3.6,0.7,7.3,2.3,10c1.6,2.7,3.7,4.3,6.7,4.3c3.4,0,6-1.8,7.9-4.9c1.3-2,2.2-4.5,2.7-7.2c-5-1.1-9.4-3.8-11.8-8.4
					c-1-2.1-1.3-4-1-5.6C512.5,47.7,512.4,47.7,512.4,47.7z M519.1,44.5c-0.9,0.3-1.6,1.1-1.9,2.5c-0.3,1.4,0,3.2,0.8,4.9
					c1.3,2.6,3.7,5.2,7.7,6.7c0-0.3,0.1-0.6,0.1-0.9c0.2-4.1-0.4-8-1.8-10.5c-0.7-1.3-1.5-2.1-2.3-2.5c-0.4-0.2-0.8-0.3-1.2-0.4
					c-0.1,0-0.1,0-0.2,0C520,44.2,519.6,44.3,519.1,44.5z"/>
				<path class="st0" d="M560.3,45.3c0.3,1.4-0.1,3-0.8,4.6c-1.4,2.8-4,5.8-7.4,7.3c0.6,0.5,1.3,0.9,2.2,1.2c2,0.5,5-0.4,8.1-1.4
					c1.5-0.5,3-0.9,4.5-1.1c1.5-0.1,3.2,0.1,4.3,1.1c1,0.9,1.2,2.1,1.2,3.4c0,1.3-0.3,2.9-0.8,4.6c-0.9,3.4-2.4,7.5-3.4,11.5
					c-1.3,4.8-2.1,8.9-2,11.9c0.1,1.5,0.4,2.6,1,3.4c0.6,0.8,1.3,1.2,2.5,1.4c1,0.2,1.8,0,2.8-0.5c1-0.5,2-1.4,3-2.7
					c2.1-2.5,4.1-6.1,6-10.1c3.9-7.9,7.8-17,10.1-23.2c0.2-0.6,0.9-0.9,1.6-0.7c0.7,0.2,1.1,0.8,0.9,1.3
					c-2.3,6.3-6.2,15.5-10.1,23.4c-2,4-4,7.8-6.3,10.5c-2.5,3-5.6,5.3-10.6,5.1c-5-0.2-9.8-2.8-10.2-8.8c-0.2-3.4,0.7-7.6,2-12.5
					c1.1-4.1,2.6-8.2,3.4-11.5c1-3.8,0.8-4.5,0.8-4.5c-3,0.9-7.7,2.5-12.2,1.4c-5.1-1.2-8.6-5.1-7.8-10.5
					C544.6,39.8,558.7,39.1,560.3,45.3z M553.3,45.7c-1.1,1.1-2,2.8-2.4,4.6c-0.4,1.7-0.4,3.5,0.1,5c2.6-1.2,5-3.8,6.1-6.1
					c0.6-1.3,0.9-2.6,0.7-3.4c-0.2-0.8-0.5-1.2-1.5-1.4c-0.1,0-0.2,0-0.4,0C555.1,44.3,554.2,44.7,553.3,45.7z"/>
				<path class="st0" d="M603.4,46.8c-1,3.3-2.2,8.8-2.3,14c0,3.3,0.4,6.4,1.5,8.7c1.1,2.3,2.8,3.8,5.6,4.2c2.5,0.4,4.7-0.4,6.7-1.8
					c2-1.4,3.8-3.6,5.3-5.9c2.9-4.5,4.3-9.3,4.3-9.3c0.2-0.6,0.9-0.9,1.6-0.8c0.7,0.1,1.1,0.7,1,1.3c0,0-1.5,5-4.6,9.8
					c-3.2,5-7.9,10.1-16.4,9.9c-8.6-0.3-14.8-5.5-14.8-16.1c0.1-5.9,1.5-11.9,2.6-15.3c0.8-2.4,3-3.4,5.1-3.4
					C601.8,42.2,604.3,43.9,603.4,46.8z M608.8,30.2c0,0.4-0.1,0.7-0.2,1.1l-1.1,3.7c-0.5,1.8-2.5,3.1-4.9,3.1c-2.8,0-5-1.8-5-4.1
					c0-0.4,0.1-0.7,0.2-1.1l1.1-3.7c0.5-1.8,2.5-3.1,4.9-3.1c0.1,0,0.1,0,0.2,0C606.6,26.2,608.8,28,608.8,30.2z"/>
				<path class="st0" d="M639.8,40.8c6.8-1.2,12.3,2,12.7,7.2c0.2,2.4-0.6,5.2-2,7.6c-3.7,6-11.8,7.6-17.1,5.7
					c-0.1,2.6,0.3,5.1,1.4,7.1c1.4,2.7,3.9,4.6,7.9,5.4c6.1,1.2,12-1.5,16.8-5.4c4.8-3.9,8.4-9,9.5-11.7c0.2-0.6,1-0.9,1.7-0.7
					c0.7,0.2,1.1,0.8,0.8,1.4c-1.4,3.2-5,8.4-10.2,12.5c-5.1,4.2-13,8.5-23.1,6.7c-8.5-1.6-15.7-7.7-14.2-18.2
					C625.3,49.4,631.7,42.4,639.8,40.8z M643.3,44.7c-1.4,0.5-2.8,1.5-4.1,2.8c-2.6,2.6-4.7,6.7-5.6,11.1c0,0.1,0,0.3-0.1,0.4
					c3.5,1.8,11.1,1,14.5-4.4c1.3-2.1,1.9-4.5,1.8-6.5c-0.2-1.9-1-3.2-2.6-3.7c-0.7-0.2-1.3-0.3-2-0.2
					C644.7,44.3,644,44.5,643.3,44.7z"/>
				<path class="st0" d="M697.2,47c0.2,0.4-0.1,1-0.6,1.2c-0.6,0.2-1.2,0-1.4-0.4c-1.1-2.3-3.3-3.5-5.8-3.9c-2.5-0.4-5.3,0-7.4,1.1
					c-3.3,1.7-5.2,5.5-3.9,8.7c1.1,2.8,4.7,4.7,8.8,6.9c2.1,1.1,4.2,2.3,6.1,3.7c6-3.1,12.9-6.2,19.5-8.2c0.6-0.2,1.2,0.1,1.4,0.6
					c0.2,0.5-0.2,1-0.8,1.1c-6.5,1.8-12.9,4.9-18.6,7.8c1.1,1.1,2.1,2.4,2.8,3.8c2.7,6.2,0.3,13.5-4.3,19c-2.3,2.7-5.1,5.1-8.2,6.6
					c-3.1,1.5-6.5,2.2-9.7,1.6c-3.8-0.8-5.9-3.3-6-6.5c-0.1-3.2,1.6-7.1,4.9-11.2c2.7-3.3,6.5-6.8,11.4-10.1
					c-4.8-3.9-14.2-6.1-16.4-12.8c-1.6-5.1,1.1-10.3,6.1-13.1c2.7-1.6,6.1-2.4,9.5-2.4C689.7,40.2,694.9,42.3,697.2,47z M675.5,79.6
					c-3.1,3.9-4.7,8-4.4,10.4c0.4,2.6,2.9,3.2,5.4,2.7c6.8-1.3,14.7-12.9,11-21.1c-0.3-0.6-0.6-1.1-1-1.6
					C682.9,72.7,679.1,76,675.5,79.6z"/>
			</g>
		</g>
		<g>
			<path class="st0" d="M252.4,107.3h12.3v1.7h-10.4v5.8h9.3v1.7h-9.3v5.9h10.5v1.7h-12.4V107.3z"/>
			<path class="st0" d="M267.2,107.3h2.1l6,14.6l6.1-14.6h2.1l-7.3,17.1h-1.7L267.2,107.3z"/>
			<path class="st0" d="M286.8,107.3h12.3v1.7h-10.4v5.8h9.3v1.7h-9.3v5.9h10.5v1.7h-12.4V107.3z"/>
			<path class="st0" d="M303.1,107.3h7.3c2.1,0,3.8,0.6,4.8,1.7c0.8,0.8,1.3,2,1.3,3.3v0c0,2.8-1.9,4.5-4.6,4.9l5.2,6.9h-2.4
				l-4.9-6.6H305v6.6h-1.9V107.3z M310.2,115.9c2.5,0,4.4-1.3,4.4-3.5v0c0-2.1-1.6-3.3-4.3-3.3H305v6.9H310.2z"/>
			<path class="st0" d="M320.6,107.3h1.9v15.2h9.6v1.8h-11.5V107.3z"/>
			<path class="st0" d="M341.9,107.1h1.8l7.7,17.1h-2.1l-2-4.5h-9.2l-2,4.5h-2L341.9,107.1z M346.6,118l-3.9-8.7l-3.9,8.7H346.6z"/>
			<path class="st0" d="M353.3,121.8l1.2-1.4c1.8,1.6,3.5,2.4,5.8,2.4c2.3,0,3.8-1.2,3.8-2.9v0c0-1.6-0.8-2.5-4.4-3.2
				c-3.9-0.8-5.7-2.1-5.7-4.9v0c0-2.7,2.4-4.6,5.6-4.6c2.5,0,4.2,0.7,6,2.1l-1.1,1.5c-1.6-1.3-3.2-1.8-4.9-1.8
				c-2.2,0-3.6,1.2-3.6,2.7v0c0,1.6,0.9,2.5,4.6,3.3c3.8,0.8,5.5,2.2,5.5,4.8v0c0,2.9-2.4,4.8-5.8,4.8
				C357.6,124.5,355.4,123.6,353.3,121.8z"/>
			<path class="st0" d="M374.1,109h-5.7v-1.8h13.3v1.8H376v15.2h-1.9V109z"/>
			<path class="st0" d="M385.5,107.3h1.9v17h-1.9V107.3z"/>
			<path class="st0" d="M392.4,107.3h1.8l10.7,13.6v-13.6h1.9v17h-1.5l-11-13.9v13.9h-1.9V107.3z"/>
			<path class="st0" d="M410.8,115.8L410.8,115.8c0-4.7,3.4-8.8,8.5-8.8c2.9,0,4.6,0.8,6.3,2.3l-1.2,1.5c-1.3-1.1-2.8-1.9-5.2-1.9
				c-3.8,0-6.5,3.2-6.5,7v0c0,4,2.6,7.1,6.7,7.1c1.9,0,3.7-0.8,4.9-1.7v-4.2h-5.2v-1.7h7v6.8c-1.6,1.4-4,2.6-6.8,2.6
				C414.1,124.5,410.8,120.6,410.8,115.8z"/>
			<path class="st0" d="M436.1,121.5l1.4-1.2c1,1.6,2.1,2.4,3.9,2.4c1.9,0,3.3-1.4,3.3-4.1v-11.4h1.9v11.3c0,2-0.6,3.5-1.6,4.5
				c-0.9,0.9-2.2,1.4-3.7,1.4C438.8,124.5,437.2,123.2,436.1,121.5z"/>
			<path class="st0" d="M450.5,115.8L450.5,115.8c0-4.7,3.5-8.8,8.7-8.8c5.2,0,8.6,4,8.6,8.7v0c0,4.7-3.5,8.8-8.7,8.8
				C453.9,124.5,450.5,120.5,450.5,115.8z M465.8,115.8L465.8,115.8c0-3.9-2.8-7.1-6.7-7.1c-3.9,0-6.6,3.1-6.6,7v0
				c0,3.9,2.8,7,6.7,7C463,122.7,465.8,119.6,465.8,115.8z"/>
			<path class="st0" d="M475.7,117.5l-7.1-10.3h2.3l5.7,8.5l5.8-8.5h2.2l-7.1,10.2v6.7h-1.9V117.5z"/>
			<path class="st0" d="M487.7,107.3h12.2v1.8h-10.3v6.1h9.2v1.7h-9.2v7.4h-1.9V107.3z"/>
			<path class="st0" d="M503.4,117.1v-9.9h1.9v9.7c0,3.7,1.9,5.7,5.2,5.7c3.1,0,5.1-1.9,5.1-5.6v-9.9h1.9v9.7c0,4.9-2.8,7.5-7.1,7.5
				C506.2,124.5,503.4,121.9,503.4,117.1z"/>
			<path class="st0" d="M522,107.3h1.9v15.2h9.6v1.8H522V107.3z"/>
			<path class="st0" d="M544.3,107.3h1.9l6.2,9.3l6.2-9.3h1.9v17h-1.9v-13.7l-6.2,9.1h-0.1l-6.2-9.1v13.7h-1.9V107.3z"/>
			<path class="st0" d="M564.6,115.8L564.6,115.8c0-4.7,3.5-8.8,8.7-8.8c5.2,0,8.6,4,8.6,8.7v0c0,4.7-3.5,8.8-8.7,8.8
				C568.1,124.5,564.6,120.5,564.6,115.8z M579.9,115.8L579.9,115.8c0-3.9-2.8-7.1-6.7-7.1c-3.9,0-6.6,3.1-6.6,7v0
				c0,3.9,2.8,7,6.7,7C577.2,122.7,579.9,119.6,579.9,115.8z"/>
			<path class="st0" d="M586,107.3h1.9l6.2,9.3l6.2-9.3h1.9v17h-1.9v-13.7l-6.2,9.1H594l-6.2-9.1v13.7H586V107.3z"/>
			<path class="st0" d="M607,107.3h12.3v1.7h-10.4v5.8h9.3v1.7h-9.3v5.9h10.5v1.7H607V107.3z"/>
			<path class="st0" d="M623.3,107.3h1.8l10.7,13.6v-13.6h1.9v17h-1.5l-11-13.9v13.9h-1.9V107.3z"/>
			<path class="st0" d="M646.9,109h-5.7v-1.8h13.3v1.8h-5.7v15.2h-1.9V109z"/>
			<path class="st0" d="M656.7,121.8l1.2-1.4c1.8,1.6,3.5,2.4,5.8,2.4c2.3,0,3.8-1.2,3.8-2.9v0c0-1.6-0.8-2.5-4.4-3.2
				c-3.9-0.8-5.7-2.1-5.7-4.9v0c0-2.7,2.4-4.6,5.6-4.6c2.5,0,4.2,0.7,6,2.1l-1.1,1.5c-1.6-1.3-3.2-1.8-4.9-1.8
				c-2.2,0-3.6,1.2-3.6,2.7v0c0,1.6,0.9,2.5,4.6,3.3c3.8,0.8,5.5,2.2,5.5,4.8v0c0,2.9-2.4,4.8-5.8,4.8
				C660.9,124.5,658.7,123.6,656.7,121.8z"/>
		</g>
	</g>
</g>
</svg>
